<svg width="91" height="81" viewBox="0 0 91 81" fill="none" xmlns="http://www.w3.org/2000/svg">
<circle cx="23.5" cy="45.5" r="12.5" fill="#24252E"/>
<path d="M31.0488 61C38.4481 61 44.7425 66.3956 45.873 73.708L47 81H0L1.12695 73.708C2.25753 66.3956 8.55188 61 15.9512 61H31.0488ZM22 67L20 75.4004L23.5 79L27 75.4004L25 67H22ZM22 66H25L27 63H20L22 66Z" fill="#24252E"/>
<rect x="29.5" y="0.5" width="61" height="80" stroke="#24252E"/>
<rect x="37.5" y="10.5" width="8" height="4" stroke="#24252E"/>
<rect x="37.5" y="24.5" width="8" height="4" stroke="#24252E"/>
<rect x="37.5" y="38.5" width="8" height="4" stroke="#24252E"/>
<rect x="37.5" y="52.5" width="8" height="4" stroke="#24252E"/>
<rect x="37.5" y="66.5" width="8" height="4" stroke="#24252E"/>
<rect x="55.5" y="10.5" width="8" height="4" stroke="#24252E"/>
<rect x="55.5" y="24.5" width="8" height="4" stroke="#24252E"/>
<rect x="55.5" y="38.5" width="8" height="4" stroke="#24252E"/>
<rect x="55.5" y="52.5" width="8" height="4" stroke="#24252E"/>
<rect x="55.5" y="66.5" width="8" height="4" stroke="#24252E"/>
<rect x="73.5" y="10.5" width="8" height="4" stroke="#24252E"/>
<rect x="73.5" y="24.5" width="8" height="4" stroke="#24252E"/>
<rect x="73.5" y="38.5" width="8" height="4" stroke="#24252E"/>
<rect x="73.5" y="52.5" width="8" height="4" stroke="#24252E"/>
<rect x="73.5" y="66.5" width="8" height="4" stroke="#24252E"/>
</svg>
