<svg width="117" height="81" viewBox="0 0 117 81" fill="none" xmlns="http://www.w3.org/2000/svg">
<ellipse cx="18.453" cy="53.0825" rx="9.81544" ry="9.8301" fill="#24252E"/>
<path d="M0.465696 77.9832C1.59479 70.6692 7.88946 65.2717 15.2901 65.2717H21.6159C29.0166 65.2717 35.3112 70.6692 36.4403 77.9832L36.906 80.9999H0L0.465696 77.9832Z" fill="#24252E"/>
<ellipse cx="58.5" cy="53.0825" rx="9.81544" ry="9.8301" fill="#24252E"/>
<path d="M40.5127 77.9832C41.6418 70.6692 47.9365 65.2717 55.3371 65.2717H61.6629C69.0636 65.2717 75.3582 70.6692 76.4873 77.9832L76.953 80.9999H40.047L40.5127 77.9832Z" fill="#24252E"/>
<ellipse cx="98.547" cy="53.0825" rx="9.81544" ry="9.8301" fill="#24252E"/>
<path d="M80.5596 77.9832C81.6887 70.6692 87.9834 65.2717 95.384 65.2717H101.71C109.111 65.2717 115.405 70.6692 116.534 77.9832L117 80.9999H80.0939L80.5596 77.9832Z" fill="#24252E"/>
<ellipse cx="37.2987" cy="9.8301" rx="9.81544" ry="9.8301" fill="#24252E"/>
<path d="M19.3113 34.731C20.4404 27.417 26.7351 22.0195 34.1357 22.0195H40.4616C47.8622 22.0195 54.1569 27.417 55.286 34.731L55.7517 37.7477H18.8456L19.3113 34.731Z" fill="#24252E"/>
<ellipse cx="80.4866" cy="9.8301" rx="9.81544" ry="9.8301" fill="#24252E"/>
<path d="M62.4993 34.731C63.6284 27.417 69.923 22.0195 77.3237 22.0195H83.6495C91.0502 22.0195 97.3448 27.417 98.4739 34.731L98.9396 37.7477H62.0336L62.4993 34.731Z" fill="#24252E"/>
</svg>
