<svg width="107" height="82" viewBox="0 0 107 82" fill="none" xmlns="http://www.w3.org/2000/svg">
<mask id="path-1-inside-1_95_127" fill="white">
<path d="M53.5 0C61.9303 0 68.947 6.00437 70.4561 13.9424C73.3903 11.6513 77.0914 10.2852 81.1133 10.2852C90.6446 10.2853 98.3711 17.9604 98.3711 27.4277C98.371 30.3741 97.622 33.1465 96.3037 35.5684C102.581 38.1335 107 44.2669 107 51.4268C107 60.8941 99.2735 68.5693 89.7422 68.5693C87.5695 68.5693 85.4912 68.1684 83.5762 67.4404C81.2029 74.0908 74.8154 78.8545 67.3066 78.8545C61.6611 78.8545 56.6487 76.1618 53.5 71.999C50.3513 76.1618 45.3388 78.8545 39.6934 78.8545C32.1847 78.8544 25.7971 74.0908 23.4238 67.4404C21.5089 68.1683 19.4304 68.5693 17.2578 68.5693C7.72659 68.5692 4.35888e-05 60.894 0 51.4268C0 44.5342 4.09539 38.5916 10.001 35.8691C8.57871 33.3772 7.76665 30.4968 7.7666 27.4277C7.7666 17.9603 15.493 10.2852 25.0244 10.2852C29.3992 10.2852 33.3928 11.9034 36.4346 14.5684C37.6846 6.32195 44.8493 4.64675e-05 53.5 0Z"/>
</mask>
<path d="M53.5 0L53.5 -1L53.5 -1L53.5 0ZM70.4561 13.9424L69.4736 14.1291L69.7797 15.7392L71.0715 14.7306L70.4561 13.9424ZM81.1133 10.2852L81.1133 9.28516H81.1133V10.2852ZM98.3711 27.4277L99.3711 27.4277V27.4277H98.3711ZM96.3037 35.5684L95.4254 35.0903L94.8913 36.0714L95.9254 36.494L96.3037 35.5684ZM107 51.4268L108 51.4268V51.4268H107ZM89.7422 68.5693L89.7422 69.5693L89.7422 69.5693L89.7422 68.5693ZM83.5762 67.4404L83.9315 66.5057L82.9774 66.143L82.6343 67.1043L83.5762 67.4404ZM67.3066 78.8545L67.3066 79.8545L67.3066 79.8545L67.3066 78.8545ZM53.5 71.999L54.2976 71.3958L53.5 70.3413L52.7025 71.3958L53.5 71.999ZM39.6934 78.8545L39.6933 79.8545H39.6934V78.8545ZM23.4238 67.4404L24.3657 67.1043L24.0226 66.143L23.0685 66.5057L23.4238 67.4404ZM17.2578 68.5693L17.2578 69.5693H17.2578V68.5693ZM0 51.4268L-1 51.4268L-1 51.4268L0 51.4268ZM10.001 35.8691L10.4196 36.7773L11.4101 36.3207L10.8695 35.3734L10.001 35.8691ZM7.7666 27.4277L6.7666 27.4277L6.7666 27.4277L7.7666 27.4277ZM25.0244 10.2852L25.0244 9.28516H25.0244V10.2852ZM36.4346 14.5684L35.7756 15.3205L37.1495 16.5243L37.4233 14.7182L36.4346 14.5684ZM53.5 0V1C61.4457 1 68.0535 6.65865 69.4736 14.1291L70.4561 13.9424L71.4385 13.7556C69.8405 5.35008 62.4149 -1 53.5 -1V0ZM70.4561 13.9424L71.0715 14.7306C73.8357 12.5723 77.3216 11.2852 81.1133 11.2852V10.2852V9.28516C76.8613 9.28516 72.945 10.7303 69.8406 13.1542L70.4561 13.9424ZM81.1133 10.2852L81.1133 11.2852C90.0986 11.2853 97.3711 18.519 97.3711 27.4277H98.3711H99.3711C99.3711 17.4018 91.1905 9.28529 81.1133 9.28516L81.1133 10.2852ZM98.3711 27.4277L97.3711 27.4277C97.3711 30.2026 96.666 32.8111 95.4254 35.0903L96.3037 35.5684L97.182 36.0464C98.5779 33.482 99.371 30.5457 99.3711 27.4277L98.3711 27.4277ZM96.3037 35.5684L95.9254 36.494C101.842 38.9121 106 44.6903 106 51.4268H107H108C108 43.8436 103.319 37.3549 96.682 34.6427L96.3037 35.5684ZM107 51.4268L106 51.4268C106 60.3355 98.7275 67.5693 89.7422 67.5693L89.7422 68.5693L89.7422 69.5693C99.8195 69.5693 108 61.4527 108 51.4268L107 51.4268ZM89.7422 68.5693V67.5693C87.6934 67.5693 85.7354 67.1914 83.9315 66.5057L83.5762 67.4404L83.2209 68.3752C85.247 69.1453 87.4456 69.5693 89.7422 69.5693V68.5693ZM83.5762 67.4404L82.6343 67.1043C80.3998 73.3659 74.3828 77.8545 67.3066 77.8545L67.3066 78.8545L67.3066 79.8545C75.2479 79.8545 82.0059 74.8156 84.518 67.7765L83.5762 67.4404ZM67.3066 78.8545V77.8545C61.9861 77.8545 57.2644 75.3182 54.2976 71.3958L53.5 71.999L52.7024 72.6023C56.033 77.0055 61.3361 79.8545 67.3066 79.8545V78.8545ZM53.5 71.999L52.7025 71.3958C49.7356 75.3181 45.0138 77.8545 39.6934 77.8545V78.8545V79.8545C45.6639 79.8545 50.967 77.0055 54.2975 72.6023L53.5 71.999ZM39.6934 78.8545L39.6934 77.8545C32.6172 77.8544 26.6002 73.3659 24.3657 67.1043L23.4238 67.4404L22.482 67.7765C24.994 74.8156 31.7521 79.8544 39.6933 79.8545L39.6934 78.8545ZM23.4238 67.4404L23.0685 66.5057C21.2647 67.1913 19.3065 67.5693 17.2578 67.5693V68.5693V69.5693C19.5544 69.5693 21.7531 69.1453 23.7791 68.3752L23.4238 67.4404ZM17.2578 68.5693L17.2578 67.5693C8.27255 67.5692 1.00004 60.3355 1 51.4268L0 51.4268L-1 51.4268C-0.999954 61.4526 7.18062 69.5692 17.2578 69.5693L17.2578 68.5693ZM0 51.4268H1C1 44.9415 4.85259 39.3437 10.4196 36.7773L10.001 35.8691L9.58232 34.961C3.33819 37.8396 -1 44.1268 -1 51.4268H0ZM10.001 35.8691L10.8695 35.3734C9.53095 33.0283 8.76664 30.3181 8.7666 27.4277L7.7666 27.4277L6.7666 27.4277C6.76665 30.6755 7.62646 33.7262 9.13248 36.3648L10.001 35.8691ZM7.7666 27.4277H8.7666C8.7666 18.5189 16.039 11.2852 25.0244 11.2852V10.2852V9.28516C14.9471 9.28516 6.7666 17.4017 6.7666 27.4277H7.7666ZM25.0244 10.2852L25.0244 11.2852C29.1481 11.2852 32.9096 12.8095 35.7756 15.3205L36.4346 14.5684L37.0936 13.8162C33.8761 10.9972 29.6503 9.2852 25.0244 9.28516L25.0244 10.2852ZM36.4346 14.5684L37.4233 14.7182C38.5996 6.95834 45.3461 1.00004 53.5 1L53.5 0L53.5 -1C44.3526 -0.999951 36.7696 5.68557 35.4459 14.4185L36.4346 14.5684Z" fill="#24252E" mask="url(#path-1-inside-1_95_127)"/>
<path d="M69.1557 35.7278C63.0215 47.7969 46.1562 55.4072 46.0776 55.4426L44.688 54.0627C44.8849 54.2655 44.8665 54.6053 44.644 54.8264L43.6665 55.7971C43.4417 56.0202 43.0945 56.0378 42.8911 55.8362L37.5132 50.4944C37.3099 50.2923 37.3275 49.9472 37.5522 49.7239L38.5298 48.7532C38.752 48.5325 39.093 48.5137 39.2973 48.7083L37.9096 47.3293C37.9214 47.3036 45.5883 30.5089 57.7583 24.4065L69.1557 35.7278ZM59.9116 33.5881C58.18 31.8682 55.3718 31.8684 53.6401 33.5881L53.4829 33.7522C51.9607 35.4254 51.9608 37.9793 53.4829 39.6526L53.6401 39.8176C55.3178 41.4837 58.005 41.5351 59.7456 39.9729L59.9106 39.8176C61.5883 38.1512 61.6409 35.4812 60.0678 33.7522L59.9116 33.5881ZM54.3491 34.2932C55.6889 32.9624 57.8618 32.9624 59.2016 34.2932C60.5411 35.624 60.5412 37.7818 59.2016 39.1125C57.8619 40.443 55.6899 40.4429 54.3501 39.1125C53.0103 37.7818 53.0096 35.6241 54.3491 34.2932Z" fill="#24252E"/>
<path d="M45.1023 33.7833L47.0698 34.1807L40.3444 43.8727C38.1154 41.6587 33.2145 41.4618 30.4835 41.5419C30.1025 41.5531 29.9319 40.9758 30.2692 40.8088L44.2325 33.8944C44.4992 33.7623 44.8051 33.7233 45.1023 33.7833Z" fill="#24252E"/>
<path d="M59.6969 48.3147L59.2968 46.3604L49.5393 53.0407C51.7683 55.2547 51.9666 60.1227 51.8859 62.8353C51.8747 63.2138 52.4558 63.3833 52.624 63.0482L59.5851 49.1786C59.718 48.9138 59.7574 48.6099 59.6969 48.3147Z" fill="#24252E"/>
<path d="M41.3419 54.2976L42.2735 55.2224C42.2683 55.2487 41.3896 59.6673 37.3966 61.4939C34.7394 62.7093 30.8569 62.5476 30.8341 62.5466C30.8341 62.5466 30.7478 58.5947 31.8517 55.9861C33.5619 51.9448 38.2081 51.1843 38.2081 51.1843L39.1036 52.074C39.0688 52.0798 36.5397 52.5087 35.6046 54.7185C34.9969 56.1548 35.044 58.3308 35.044 58.3308C35.044 58.3308 37.19 58.4219 38.6573 57.7507C40.8575 56.7443 41.3398 54.3084 41.3419 54.2976Z" fill="#24252E"/>
<path d="M57.2231 24.6892C69.8536 18.2751 72.9869 19.8813 73.3588 20.2507C73.7309 20.6206 75.347 23.7334 68.8901 36.2781C68.8901 36.2781 57.519 24.9832 57.2231 24.6892ZM71.9409 21.6589C71.6712 21.3912 69.4 20.2284 60.2485 24.8757C60.4628 25.0886 68.6885 33.2602 68.7016 33.2732C73.3806 24.1826 72.2103 21.9266 71.9409 21.6589Z" fill="#24252E"/>
<circle cx="17" cy="76.0322" r="4.5" stroke="#24252E"/>
</svg>
