<svg xmlns="http://www.w3.org/2000/svg" viewBox="0 0 437.56 308.87"><defs><style>.cls-1,.cls-4,.cls-5{fill:none;}.cls-2{fill:#fff;}.cls-2,.cls-4,.cls-5,.cls-6{stroke:#a163ff;stroke-linecap:round;stroke-linejoin:round;}.cls-2,.cls-4,.cls-6{stroke-width:2px;}.cls-3{fill:#a163ff;}.cls-5{stroke-width:3px;}.cls-6{fill:#fdfdfd;}</style></defs><title>construction</title><g id="Layer_2" data-name="Layer 2"><g id="curlyFaceExpanded"><rect class="cls-1" width="437.56" height="308.48"/><polyline class="cls-2" points="208.31 190.48 208.31 226.39 217.55 226.39 220.01 226.39 229.26 226.39 229.26 190.48"/><path class="cls-2" d="M273,136l.26-49.37H163c-1.39,17.85-3.74,43.83-5.68,44-3.42.25-6.53,3.39-5.72,10.14.95,7.93,8.09,18.24,12.92,16.15,4.93,24,27,43.74,53,44.92v.06l1.23,0,1.23,0v-.06c26-1.18,48.09-20.87,53-44.92,4.83,2.09,12-8.22,12.92-16.15C287.46,128.1,275.32,128.06,273,136Z"/><circle class="cls-3" cx="191.13" cy="137.33" r="5.12"/><path class="cls-4" d="M198.54,115.6c-6-2.45-15.54-1.51-19.41,4"/><circle class="cls-3" cx="246.43" cy="137.33" r="5.12"/><path class="cls-4" d="M239,115.6c6-2.45,15.54-1.51,19.41,4"/><path class="cls-5" d="M208.2,130.64c-4.08-6.64-33-5.79-37,.66s0,20.18,9.13,24.46c10.61,5,20.36,2.07,24.82-2.76C209,148.87,212.2,137.15,208.2,130.64Z"/><line class="cls-5" x1="169.67" y1="133.52" x2="161.24" y2="130.5"/><path class="cls-5" d="M229.36,130.64c4.08-6.64,33-5.79,37,.66s0,20.18-9.13,24.46c-10.61,5-20.36,2.07-24.82-2.76C228.59,148.87,225.36,137.15,229.36,130.64Z"/><line class="cls-5" x1="267.89" y1="133.52" x2="276.32" y2="130.5"/><path class="cls-5" d="M209.49,133.74s1.39-.74,9.29-.74,9.29.74,9.29.74"/><path class="cls-2" d="M145.75,86.58c-.58,3.09-1.07,6.24-1.47,9.4-3.14,25,18.35,47.54,19.17,42.93.92-5.14,0-25.12,9.31-39.51,6.65-10.28,13.83-9.16,15.58-10.56a16.79,16.79,0,0,0,1.76-2.26Z"/><path class="cls-2" d="M295.77,136c-7.3-2.58-6.87-14.55-6.17-28a140.49,140.49,0,0,0,0-21.32h-42a48.54,48.54,0,0,1,10.86,19.51c6.92,22.62,10.25,30,14.65,34.91C284.44,153.76,300.55,137.64,295.77,136Z"/><ellipse class="cls-2" cx="218.78" cy="175.07" rx="7.86" ry="9.12"/><path class="cls-2" d="M201.82,16.86h32.45a60,60,0,0,1,60,60V88.36a0,0,0,0,1,0,0H141.77a0,0,0,0,1,0,0V76.91A60,60,0,0,1,201.82,16.86Z"/><path class="cls-2" d="M171.61,58.13l8-39.22c.87-4.63,7.78-8.14,16-8.14h46.22c8.25,0,15.16,3.51,16,8.14l8,39.22"/><path class="cls-2" d="M190.31,58.13l4.85-45.58a10,10,0,0,1,9.67-9.34h27.9a10,10,0,0,1,9.67,9.34l4.85,45.58"/><path class="cls-2" d="M153,72.84H141.74c-2.56,0-4.64,1.74-4.64,3.89v7.71c0,2.15,2.08,3.89,4.64,3.89,0,0,11.3,0,17.4,4.07,7,4.72,12.28,10.67,23.42,10.67H255c11.14,0,16.43-5.95,23.42-10.67,6.1-4.11,17.4-4.07,17.4-4.07,2.56,0,4.64-1.74,4.64-3.89V76.73c0-2.15-2.08-3.89-4.64-3.89H284.54"/><path class="cls-6" d="M362.15,178.66,372,163.78c2.38-3.6,7.14-4.17,9.51-1.15l3.75,4.79c3.19,4.08,3.18,10.21,0,15.06l-13,19.65-9.52-6.32"/><rect class="cls-6" x="355.72" y="105.69" width="47.76" height="107.97" rx="12.37" ry="12.37" transform="translate(100.53 462.52) rotate(-70.15)"/><rect class="cls-6" x="370.43" y="124.33" width="9.04" height="96.45" rx="4.52" ry="4.52" transform="translate(85.35 466.65) rotate(-70.15)"/><circle class="cls-6" cx="346.77" cy="148.41" r="4.85"/><circle class="cls-6" cx="363.09" cy="154.3" r="4.85"/><circle class="cls-6" cx="379.41" cy="160.19" r="4.85"/><circle class="cls-6" cx="395.73" cy="166.08" r="4.85"/><circle class="cls-6" cx="412.05" cy="171.97" r="4.85"/><circle class="cls-6" cx="359.39" cy="138.99" r="4.85"/><circle class="cls-6" cx="343.07" cy="133.1" r="4.85"/><circle class="cls-6" cx="375.71" cy="144.88" r="4.85"/><circle class="cls-6" cx="392.03" cy="150.77" r="4.85"/><circle class="cls-6" cx="424.68" cy="162.55" r="4.85"/><circle class="cls-6" cx="408.36" cy="156.66" r="4.85"/><path class="cls-6" d="M362.69,195.81l-8.28-5.48,0,0,0,0,1.3-18.7c0-2.35,1.42-4.39,3.09-4.57s3,1.58,3,3.93l.39,7.67"/><path class="cls-2" d="M351.36,185.48c-27.87,33.8-66.72,32.76-92.41,32.08h-.07a39.05,39.05,0,0,1-15.28-3.78,35.25,35.25,0,0,0-14.95-3.3H208.91a35.25,35.25,0,0,0-14.95,3.3,39.05,39.05,0,0,1-15.28,3.78h-.07c-25.69.68-64.54,1.72-92.41-32.08L63.82,203.93c31.73,38.47,74,42.83,102.75,42.83,2.26,0,4.71,0,6.85,0v61.1h90.72v-61.1c2.14,0,4.59,0,6.85,0,28.71,0,71-4.36,102.75-42.83Z"/><path class="cls-6" d="M74.32,178.57l3.52-9-14.28-4.47c-2.63-1-5.38-.27-6.15,1.68h0c-.76,2,.75,4.38,3.38,5.41Z"/><path class="cls-6" d="M86.63,209.48l-5.78,2.07c-1.67.6-3.61-.55-4.29-2.55L54.18,143.36l9.72-3.49,24.43,64.91C89.08,206.76,88.31,208.88,86.63,209.48Z"/><rect class="cls-6" x="33.94" y="129.03" width="9.13" height="16.31" rx="3" ry="3" transform="translate(-44.04 21.04) rotate(-19.72)"/><rect class="cls-6" x="42.65" y="130.61" width="5.06" height="8.35" transform="translate(-42.84 23.16) rotate(-19.72)"/><path class="cls-6" d="M67.26,141.17,52.11,146.6l-7.3-20.34L60,120.82c10.67-3.82,23.52,1.11,27.83,6,1.63,1.84-.26,3.85-2.38,2.23-5.44-4.13-17-.54-18.78,2.94C64.44,136.12,67.26,141.17,67.26,141.17Z"/><path class="cls-6" d="M73.06,168.58l-7.75,1.89a6.92,6.92,0,0,0-5.07,8.37l3.92,16c.06.23.13.46.21.68,1.47,4.14,6.72,5.46,10.25,2.86l6.94-5.12a6.18,6.18,0,0,0,2.34-6.45l-3.36-13.72A6.17,6.17,0,0,0,73.06,168.58Z"/></g></g></svg>