<svg id="Layer_2" data-name="Layer 2" xmlns="http://www.w3.org/2000/svg" xmlns:xlink="http://www.w3.org/1999/xlink" viewBox="0 0 225 225"><defs><style>.cls-1,.cls-10,.cls-8{fill:none;}.cls-2{fill:#a263ff;}.cls-3{fill:url(#linear-gradient);}.cls-4{fill:url(#linear-gradient-2);}.cls-5{fill:#fff;}.cls-6{fill:#aaef25;}.cls-7{clip-path:url(#clip-path);}.cls-10,.cls-8{stroke:#aaef25;stroke-miterlimit:10;}.cls-8{stroke-width:2px;}.cls-9{clip-path:url(#clip-path-2);}.cls-10{stroke-width:7.05px;}</style><linearGradient id="linear-gradient" x1="135.11" y1="200.31" x2="141.09" y2="132" gradientUnits="userSpaceOnUse"><stop offset="0" stop-color="#430c8c" stop-opacity="0.5"/><stop offset="0.52" stop-color="#430c8c" stop-opacity="0.25"/><stop offset="1" stop-color="#430c8c" stop-opacity="0"/></linearGradient><linearGradient id="linear-gradient-2" x1="54.74" y1="197.56" x2="54.74" y2="127.42" gradientUnits="userSpaceOnUse"><stop offset="0" stop-color="#430c8c" stop-opacity="0.6"/><stop offset="0.44" stop-color="#430c8c" stop-opacity="0.35"/><stop offset="1" stop-color="#430c8c" stop-opacity="0"/></linearGradient><clipPath id="clip-path"><path class="cls-1" d="M89,129.61,18.26,197.23a7.74,7.74,0,0,0,7.8,6.82H177.91L100,129.61A8,8,0,0,0,89,129.61Z"/></clipPath><clipPath id="clip-path-2"><path class="cls-1" d="M345.09,132.63,260.6,213.38a9.25,9.25,0,0,0,9.32,8.15H451.29l-93-88.9A9.6,9.6,0,0,0,345.09,132.63Z"/></clipPath></defs><title>logoA</title><path class="cls-2" d="M106,24.92,18.91,193.32a7.35,7.35,0,0,0,6.53,10.73H199.56a7.35,7.35,0,0,0,6.53-10.73L119,24.92A7.36,7.36,0,0,0,106,24.92Z"/><path class="cls-2" d="M109.63,129.05,24.1,195.68A4.68,4.68,0,0,0,27,204.05H198a4.68,4.68,0,0,0,2.88-8.37l-85.53-66.63A4.68,4.68,0,0,0,109.63,129.05Z"/><polyline class="cls-3" points="177.91 204.05 125.83 130.66 98.08 130.66"/><path class="cls-4" d="M18.3,197.56a10.54,10.54,0,0,1,1.18-5.35C28.84,174.38,53,127.42,53,127.42H91.2"/><path class="cls-5" d="M26.06,202.38a6.08,6.08,0,0,1-6-4.56l70.09-67a6.37,6.37,0,0,1,8.73,0l74.87,71.56Z"/><path class="cls-6" d="M94.51,130.76A4.59,4.59,0,0,1,97.72,132l71.86,68.68H26.06A4.46,4.46,0,0,1,22,198.27L91.3,132a4.62,4.62,0,0,1,3.21-1.27m0-3.34A8,8,0,0,0,89,129.61L18.26,197.23a7.74,7.74,0,0,0,7.8,6.82H177.91L100,129.61a8,8,0,0,0-5.52-2.19Z"/><g class="cls-7"><path class="cls-8" d="M-4.58,200.74c.72-4.92,2.84-9.64,3-14.62.17-8.23-5.93-16.21-14.12-18.46-5.56-1.53-11.6-.62-17.15-2.16-10.61-3-20.34-11.61-20.34-21.76,0-6.9,6.58-12,16.45-6.54,12.4,6.83,25.14,13,37.72,19.56,5.71,3,4.83,10.5,9.65,14.7,7.75,6.76,22.2,24,30.46,25.77,8.77,1.9,8.85-5.73,6.58-9.24-2.46-3.79-8.58-4.86-11.12-8.19-6.32-8.29-5.76-9,3.93-8a23.13,23.13,0,0,1,11,4.32c9.76,7.56,19,20.12,32.19,37"/><path class="cls-8" d="M168.53,206.37c-4.05-5.05-6.32-11.37-10.9-16s-11.77-3.34-18.38-3.4c-10.62-.09-22.63-11.81-30.33-25.8-4.92-8.92-11.13-15.65-16.86-16.89-11-2.39-17.64,6-28.77,3.64-10.41-2.22-22.67-33-36.74-47.07-1.67-1.67-3.56-3.45-5.95-3.64-3-.25-5.66,2.07-8.67,2.17-4,.14-6.87-3.48-9.08-6.69A474.08,474.08,0,0,0-37.3,42.24c-4.29,1.88-2.39,8.11.13,11.95C-20.92,79-4.35,104.1,18.48,123.42,30.92,134,45,142.53,57.68,152.76c13.27,10.69,25.9,22.31,36.58,35.45,4.2,5.16,15.23,21.79,15.23,21.79"/><path class="cls-8" d="M134.52,204.25c-5.88-7.43-13.6-11.49-21-17.52-2.11-1.72-5.42-3.34-7.33-1.42s-.21,4.94,1.46,7l16.91,20.58a6.5,6.5,0,0,0,2.17,1.94c2.5,1.13,5.43-1.37,5.7-4S137.88,208.12,134.52,204.25Z"/><path class="cls-8" d="M-60.06-49.57A137.38,137.38,0,0,0-6.73,6.84c4.16,2.43,8.62,4.79,11.29,8.72A38.14,38.14,0,0,1,8,23.1c5.44,13.79,16.46,24.69,27.2,35.17,18.05,17.62,36.65,35.62,60,45.8,5.83,2.53,11.92,4.56,17.47,7.63a85.06,85.06,0,0,1,17.64,13.39c20.24,19.48,77.37,81.28,77.37,81.28"/><path class="cls-8" d="M-26.66,25.31c16.54,29.13,37.75,75.18,72.22,100.34,13.52,9.87,40.61-1.47,63,16.58C122.75,153.65,130,173,138,175c8.19,2,16.13-13.26,10.35-20.1-5.07-6-22.54-16.5-33.81-24.75C102,121,88.32,110.25,74,104.13,42.65,90.79-1.45,34.83-19.88,18.25-27.11,11.75-28.67,21.77-26.66,25.31Z"/><path class="cls-8" d="M103.52,89.74c1.66,5.84,3.33,8.45,8.47,8.37,4.08,0,4.54-4.74,2.4-8.1s-5.12-4-8-4.54C105.07,85.22,102.65,86.72,103.52,89.74Z"/><path class="cls-8" d="M-51.76-53C-28.4-37.57-4.68-21.85,13.11-.59c9,10.72,16.28,22.69,25.77,33,11.41,12.39,25.63,22,39.71,31.51,3.87,2.61,8.52,5.34,13,3.91,4.89-1.57,6.85-7.66,5.46-12.46s-5.15-8.55-8.77-12.08C72.49,27.87,63.12,27.16,47.34,11.75c-3.53-3.45-17-21.15-16-25.9C32.78-20.6,51-19.37,68.32-1.42c4.65,4.82,5,12.69,10.19,17s15.89,2.27,15.37-4.3a11.36,11.36,0,0,0-2.24-5.11C71.87-23.88,24.3-55.54-7.69-73.16"/><path class="cls-8" d="M82.86,157.11c1.2,5.23,2.55,7.53,7.06,7.25,3.59-.22,4.2-4.5,2.47-7.46s-4.31-3.41-6.84-3.79C84.43,152.94,82.24,154.4,82.86,157.11Z"/></g><g class="cls-9"><path class="cls-10" d="M177-85.46c27.9,18.41,56.23,37.19,77.47,62.58,10.71,12.8,19.46,27.1,30.78,39.4,13.63,14.81,30.62,26.29,47.43,37.64,4.62,3.11,10.18,6.38,15.52,4.66C354,57,356.35,49.68,354.7,44s-6.15-10.21-10.48-14.44c-18.84-18.4-30-19.25-48.88-37.65-4.22-4.12-20.27-25.26-19-30.93,1.66-7.71,23.39-6.23,44.1,15.2,5.56,5.76,6,15.15,12.17,20.28s19,2.72,18.36-5.14c-.18-2.22-1.43-4.22-2.67-6.1-23.62-35.87-80.43-73.68-118.64-94.72"/></g></svg>