<svg xmlns="http://www.w3.org/2000/svg" xmlns:xlink="http://www.w3.org/1999/xlink" viewBox="0 0 671.33 167.05"><defs><style>.cls-1,.cls-8{fill:none;}.cls-2{fill:#a263ff;}.cls-3{fill:url(#linear-gradient);}.cls-4{fill:url(#linear-gradient-2);}.cls-5{fill:#fff;}.cls-6{fill:#b5ed4a;}.cls-7{clip-path:url(#clip-path);}.cls-8{stroke:#b5ed4a;stroke-miterlimit:10;stroke-width:3px;}.cls-9{fill:url(#linear-gradient-3);}.cls-10{fill:url(#linear-gradient-4);}.cls-11{fill:url(#linear-gradient-5);}</style><linearGradient id="linear-gradient" x1="103.51" y1="155.67" x2="116.94" y2="105.55" gradientUnits="userSpaceOnUse"><stop offset="0" stop-color="#430c8c" stop-opacity="0.6"/><stop offset="0.44" stop-color="#430c8c" stop-opacity="0.35"/><stop offset="1" stop-color="#430c8c" stop-opacity="0"/></linearGradient><linearGradient id="linear-gradient-2" x1="33.34" y1="160.8" x2="33.34" y2="96.99" xlink:href="#linear-gradient"/><clipPath id="clip-path"><path class="cls-1" d="M64.66,99,0,160.8A7.09,7.09,0,0,0,7.13,167H145.94L74.75,99A7.34,7.34,0,0,0,64.66,99Z"/></clipPath><linearGradient id="linear-gradient-3" x1="581.47" y1="60.44" x2="614.1" y2="63.29" gradientUnits="userSpaceOnUse"><stop offset="0" stop-color="#430c8c" stop-opacity="0.6"/><stop offset="0.1" stop-color="#430c8c" stop-opacity="0.5"/><stop offset="0.33" stop-color="#430c8c" stop-opacity="0.28"/><stop offset="0.57" stop-color="#430c8c" stop-opacity="0.13"/><stop offset="0.79" stop-color="#430c8c" stop-opacity="0.03"/><stop offset="1" stop-color="#430c8c" stop-opacity="0"/></linearGradient><linearGradient id="linear-gradient-4" x1="-1944.89" y1="-2383.64" x2="-1966.95" y2="-2385.57" gradientTransform="matrix(0, -1, -1, 0, -1966.12, -1825.12)" xlink:href="#linear-gradient-3"/><linearGradient id="linear-gradient-5" x1="219.89" y1="173.82" x2="262.29" y2="57.31" gradientUnits="userSpaceOnUse"><stop offset="0" stop-color="#430c8c" stop-opacity="0.6"/><stop offset="0.28" stop-color="#430c8c" stop-opacity="0.36"/><stop offset="0.56" stop-color="#430c8c" stop-opacity="0.16"/><stop offset="0.81" stop-color="#430c8c" stop-opacity="0.04"/><stop offset="1" stop-color="#430c8c" stop-opacity="0"/></linearGradient></defs><title>logo_1</title><g id="Layer_2" data-name="Layer 2"><g id="Layer_2-2" data-name="Layer 2"><path class="cls-2" d="M79.93,3.79.81,156.83A7,7,0,0,0,7,167H165.27a7,7,0,0,0,6.22-10.21L92.37,3.79A7,7,0,0,0,79.93,3.79Z"/><path class="cls-2" d="M81.85,99.79,11.6,154.52A7,7,0,0,0,15.9,167H156.4a7,7,0,0,0,4.3-12.52L90.45,99.79A7,7,0,0,0,81.85,99.79Z"/><polyline class="cls-3" points="145.94 167.04 96.05 99.96 72.97 99.96"/><polyline class="cls-4" points="0 160.8 48.86 96.99 66.68 96.99"/><path class="cls-5" d="M7.13,164.54a4.6,4.6,0,0,1-4.37-2.91L66.39,100.8a4.85,4.85,0,0,1,6.63,0l66.69,63.74Z"/><path class="cls-6" d="M69.71,102a2.31,2.31,0,0,1,1.59.62L133.47,162H7.13a2.38,2.38,0,0,1-1-.2l62-59.23a2.29,2.29,0,0,1,1.59-.62m0-5a7.28,7.28,0,0,0-5,2L0,160.8A7.09,7.09,0,0,0,7.13,167H145.94L74.75,99a7.27,7.27,0,0,0-5-2Z"/><g class="cls-7"><path class="cls-8" d="M26.39,139.2a18.83,18.83,0,0,1,3.95,2.28c6.69,5.19,13.11,12.94,21,23"/><path class="cls-8" d="M10.51,154.21c3.82,3.35,7.47,6,10.32,6.59,8,1.75,8.09-5.23,6-8.44-1.74-2.68-5.49-3.87-8.17-5.69"/><path class="cls-8" d="M41.16,124.37a210.67,210.67,0,0,1,28.31,28.19c2,2.46,5.69,7.75,8.77,12.26"/><path class="cls-8" d="M134,164.22c-2-3.38-3.86-6.86-6.64-9.65-4.2-4.21-10.76-3.06-16.8-3.11-9.71-.08-20.68-10.8-27.73-23.58-4.49-8.16-10.17-14.31-15.4-15.45-6.56-1.42-11.4,1.33-16.79,2.83"/><path class="cls-8" d="M104.43,165.07c-5.09-5.48-11.33-9-17.34-13.86-1.93-1.57-5-3.06-6.7-1.3s-.19,4.51,1.34,6.38l7,8.53"/><path class="cls-8" d="M81.51,108.85c8,13.33,12.49,33.13,28.83,28"/><path class="cls-8" d="M59.05,124.14c1.1,4.78,2.33,6.88,6.46,6.62,3.28-.2,3.84-4.11,2.26-6.82s-3.94-3.12-6.26-3.46C60.49,120.32,58.48,121.66,59.05,124.14Z"/></g><path class="cls-2" d="M586.75.11h20.19c35.56,0,64.39,27.21,64.39,60.79s-28.83,60.79-64.39,60.79H586.75"/><path class="cls-5" d="M549.35,164.54a4.31,4.31,0,0,1-4.3-4.3V6.91a4.3,4.3,0,0,1,4.3-4.3h34.9V160.24a4.31,4.31,0,0,1-4.3,4.3Z"/><path class="cls-6" d="M581.75,5.11V160.24A1.81,1.81,0,0,1,580,162h-30.6a1.8,1.8,0,0,1-1.8-1.8V6.91a1.79,1.79,0,0,1,1.8-1.8h32.4m5-5h-37.4a6.79,6.79,0,0,0-6.8,6.8V160.24a6.79,6.79,0,0,0,6.8,6.8H580a6.79,6.79,0,0,0,6.8-6.8V.11Z"/><path class="cls-2" d="M193.58,7.12V160a7,7,0,0,0,7,7H353.51a7,7,0,0,0,4.95-11.95L205.53,2.17A7,7,0,0,0,193.58,7.12Z"/><path class="cls-2" d="M402.39.11h37.4a0,0,0,0,1,0,0V160.24A6.8,6.8,0,0,1,433,167h-30.6a6.8,6.8,0,0,1-6.8-6.8V6.91A6.8,6.8,0,0,1,402.39.11Z"/><path class="cls-5" d="M200.58,164.54a5,5,0,0,1-.87-.08l84-84.06L359.88,4.1a4.84,4.84,0,0,1,3.42-1.49c2.29,0,4.61,1.77,4.61,5.73v154a2.22,2.22,0,0,1-2.22,2.21Z"/><path class="cls-6" d="M363.3,5.11h0c1.3,0,2.11,1.24,2.11,3.23V162H205.66l79.87-79.88L361.64,5.87a2.36,2.36,0,0,1,1.66-.76m0-5a7.34,7.34,0,0,0-5.19,2.23L282,78.63,195.63,165a7,7,0,0,0,5,2H365.69a4.71,4.71,0,0,0,4.72-4.71V8.34c0-5.34-3.47-8.23-7.11-8.23Z"/><polygon class="cls-9" points="586.75 0.1 608.99 121.69 586.75 121.69 586.75 0.1"/><polygon class="cls-10" points="395.58 121.69 439.79 121.69 439.79 140.04 395.58 121.69"/><polygon class="cls-11" points="259.75 56.39 282 78.63 195.63 164.99 259.75 56.39"/><path class="cls-5" d="M398.08,119.19V6.91a4.31,4.31,0,0,1,4.31-4.3H460c34.12,0,61.89,26.14,61.89,58.29S494.1,119.19,460,119.19Z"/><path class="cls-6" d="M460,5.11c32.75,0,59.39,25,59.39,55.79S492.73,116.69,460,116.69h-59.4V6.91a1.81,1.81,0,0,1,1.81-1.8H460m0-5H402.39a6.8,6.8,0,0,0-6.81,6.8V121.69H460c35.56,0,64.39-27.22,64.39-60.79S495.54.11,460,.11Z"/></g></g></svg>