<svg xmlns="http://www.w3.org/2000/svg" viewBox="0 0 225.19 429.15"><defs><style>.cls-1{fill:#fff;}.cls-1,.cls-3,.cls-4{stroke:#aaef25;stroke-linecap:round;stroke-linejoin:round;}.cls-1,.cls-3{stroke-width:3px;}.cls-2{fill:#aaef25;}.cls-3,.cls-4{fill:none;}.cls-4{stroke-width:4px;}</style></defs><title>sitting</title><g id="Layer_2" data-name="Layer 2"><g id="Layer_10_copy" data-name="Layer 10 copy"><polyline class="cls-1" points="102.19 163.59 102.19 199.5 111.43 199.5 113.9 199.5 123.14 199.5 123.14 163.59"/><path class="cls-1" d="M196.14,322.49c5.16,2.46,7.75,1.12,8.58-.57.9-1.85-.45-3.05-7.37-6.05h26.34l-4.64-5.57a14,14,0,0,0-11.47-5.93H177.27C177.27,316,180.14,314.87,196.14,322.49Z"/><path class="cls-1" d="M29,322.49c-5.15,2.46-7.75,1.12-8.57-.57-.9-1.85.45-3.05,7.36-6.05H1.5l4.64-5.57a14,14,0,0,1,11.46-5.93H47.92C47.92,316,45,314.87,29,322.49Z"/><path class="cls-1" d="M77.83,236.46,48.5,311.69l-25.08-9.16S50.16,231.2,60.73,206.8c6.69-15.43,26.19-19.7,41.46-19.7h21c15.27,0,34.63,4.27,41.32,19.7,10.57,24.4,37.31,95.73,37.31,95.73l-25.09,9.16-29.32-75.23"/><path class="cls-1" d="M167.75,111.06l.36-66.91H57.22s-4,61.2-7,61.42c-3.47.25-6.63,3.45-5.81,10.3,1,8.06,8.22,18.53,13.12,16.4,5,24.43,27.43,44.44,53.86,45.64V178c.42,0,.83,0,1.25,0l1.26,0v-.05c26.43-1.2,48.85-21.21,53.85-45.64,4.9,2.13,12.16-8.34,13.13-16.4C182.43,103.08,170.1,103,167.75,111.06Z"/><circle class="cls-2" cx="84.58" cy="114.46" r="5.72"/><path class="cls-3" d="M92.11,90.39c-6.11-2.5-15.79-1.54-19.73,4.08"/><circle class="cls-2" cx="140.75" cy="114.46" r="5.72"/><path class="cls-1" d="M125,143.18h-24.6s-1.89,12.33,11,13.73a7.93,7.93,0,0,0,2.51,0C126.85,155.51,125,143.18,125,143.18Z"/><path class="cls-3" d="M133.22,90.39c6.1-2.5,15.78-1.54,19.72,4.08"/><path class="cls-4" d="M101.91,105.66c-4.14-6.74-33.5-5.88-37.57.67s0,20.51,9.27,24.85c10.78,5.06,20.69,2.1,25.22-2.8C102.7,124.18,106,112.27,101.91,105.66Z"/><line class="cls-4" x1="62.77" y1="108.59" x2="54.21" y2="105.52"/><path class="cls-4" d="M123.41,105.66c4.14-6.74,33.51-5.88,37.57.67s0,20.51-9.27,24.85c-10.78,5.06-20.69,2.1-25.21-2.8C122.62,124.18,119.35,112.27,123.41,105.66Z"/><line class="cls-4" x1="162.55" y1="108.59" x2="171.12" y2="105.52"/><path class="cls-4" d="M103.22,108.81s1.42-.75,9.44-.75,9.44.75,9.44.75"/><path class="cls-1" d="M74.17,20.94c3-8.81,9.69-14.93,21.49-17.86C109.38-.33,138.28.59,160,18c26.36,21.18,25.77,42.83,24.64,64.55-.71,13.72-1.15,25.88,6.27,28.5,4.85,1.71-11.5,18.09-23.05,5.12-4.47-5-7.85-12.47-14.88-35.46C144.78,54,124.37,47.79,109.7,47.79c-19.93,0-26.18,14-28,15.41s-9.08.29-15.82,10.72c-9.45,14.62-8.53,34.93-9.46,40.14C55.62,118.74,33.79,95.85,37,70.45,39.26,52.36,44.3,34.7,54.73,25.2A19.84,19.84,0,0,1,74.17,20.94Z"/><path class="cls-1" d="M149.19,224l5,86.91H71.13l6-86.91"/><path class="cls-1" d="M88.73,287.54h6.34a17.6,17.6,0,0,1,17.6,17.6V413.71a0,0,0,0,1,0,0H71.13a0,0,0,0,1,0,0V305.14A17.6,17.6,0,0,1,88.73,287.54Z"/><path class="cls-1" d="M130.26,287.54h6.34a17.6,17.6,0,0,1,17.6,17.6V413.71a0,0,0,0,1,0,0H112.66a0,0,0,0,1,0,0V305.14a17.6,17.6,0,0,1,17.6-17.6Z"/><path class="cls-1" d="M128,398.32H143.1a16.33,16.33,0,0,1,16.33,16.33v0a13,13,0,0,1-13,13H125.66a13,13,0,0,1-13-13v-.95A15.39,15.39,0,0,1,128,398.32Z"/><path class="cls-1" d="M78.89,398.32H99.66a13,13,0,0,1,13,13v0a16.33,16.33,0,0,1-16.33,16.33H81.28a15.39,15.39,0,0,1-15.39-15.39v-.95A13,13,0,0,1,78.89,398.32Z" transform="translate(178.55 825.97) rotate(180)"/></g></g></svg>