<svg xmlns="http://www.w3.org/2000/svg" xmlns:xlink="http://www.w3.org/1999/xlink" viewBox="0 0 172.28 167.04"><defs><style>.cls-1,.cls-8{fill:none;}.cls-2{fill:#a263ff;}.cls-3{fill:url(#linear-gradient);}.cls-4{fill:url(#linear-gradient-2);}.cls-5{fill:#fff;}.cls-6{fill:#b5ed4a;}.cls-7{clip-path:url(#clip-path);}.cls-8{stroke:#b5ed4a;stroke-miterlimit:10;stroke-width:3px;}</style><linearGradient id="linear-gradient" x1="103.51" y1="155.67" x2="116.94" y2="105.55" gradientUnits="userSpaceOnUse"><stop offset="0" stop-color="#430c8c" stop-opacity="0.6"/><stop offset="0.44" stop-color="#430c8c" stop-opacity="0.35"/><stop offset="1" stop-color="#430c8c" stop-opacity="0"/></linearGradient><linearGradient id="linear-gradient-2" x1="33.34" y1="160.8" x2="33.34" y2="96.99" xlink:href="#linear-gradient"/><clipPath id="clip-path"><path class="cls-1" d="M64.66,99,0,160.8A7.09,7.09,0,0,0,7.13,167H145.94L74.75,99A7.34,7.34,0,0,0,64.66,99Z"/></clipPath></defs><title>A</title><g id="Layer_2" data-name="Layer 2"><g id="Layer_2-2" data-name="Layer 2"><path class="cls-2" d="M79.93,3.79.81,156.83A7,7,0,0,0,7,167H165.27a7,7,0,0,0,6.22-10.21L92.37,3.79A7,7,0,0,0,79.93,3.79Z"/><path class="cls-2" d="M81.85,99.79,11.6,154.52A7,7,0,0,0,15.9,167H156.4a7,7,0,0,0,4.3-12.52L90.45,99.79A7,7,0,0,0,81.85,99.79Z"/><polyline class="cls-3" points="145.94 167.04 96.05 99.96 72.97 99.96"/><polyline class="cls-4" points="0 160.8 48.86 96.99 66.68 96.99"/><path class="cls-5" d="M7.13,164.54a4.6,4.6,0,0,1-4.37-2.91L66.39,100.8a4.85,4.85,0,0,1,6.63,0l66.69,63.74Z"/><path class="cls-6" d="M69.71,102a2.31,2.31,0,0,1,1.59.62L133.47,162H7.13a2.38,2.38,0,0,1-1-.2l62-59.23a2.29,2.29,0,0,1,1.59-.62m0-5a7.28,7.28,0,0,0-5,2L0,160.8A7.09,7.09,0,0,0,7.13,167H145.94L74.75,99a7.27,7.27,0,0,0-5-2Z"/><g class="cls-7"><path class="cls-8" d="M26.39,139.2a18.83,18.83,0,0,1,3.95,2.28c6.69,5.19,13.11,12.94,21,23"/><path class="cls-8" d="M10.51,154.21c3.82,3.35,7.47,6,10.32,6.59,8,1.75,8.09-5.23,6-8.44-1.74-2.68-5.49-3.87-8.17-5.69"/><path class="cls-8" d="M41.16,124.37a210.67,210.67,0,0,1,28.31,28.19c2,2.46,5.69,7.75,8.77,12.26"/><path class="cls-8" d="M134,164.22c-2-3.38-3.86-6.86-6.64-9.65-4.2-4.21-10.76-3.06-16.8-3.11-9.71-.08-20.68-10.8-27.73-23.58-4.49-8.16-10.17-14.31-15.4-15.45-6.56-1.42-11.4,1.33-16.79,2.83"/><path class="cls-8" d="M104.43,165.07c-5.09-5.48-11.33-9-17.34-13.86-1.93-1.57-5-3.06-6.7-1.3s-.19,4.51,1.34,6.38l7,8.53"/><path class="cls-8" d="M81.51,108.85c8,13.33,12.49,33.13,28.83,28"/><path class="cls-8" d="M59.05,124.14c1.1,4.78,2.33,6.88,6.46,6.62,3.28-.2,3.84-4.11,2.26-6.82s-3.94-3.12-6.26-3.46C60.49,120.32,58.48,121.66,59.05,124.14Z"/></g></g></g></svg>