<svg xmlns="http://www.w3.org/2000/svg" xmlns:xlink="http://www.w3.org/1999/xlink" viewBox="0 0 176.82 166.94"><defs><style>.cls-1{fill:#a263ff;}.cls-2{fill:url(#linear-gradient);}</style><linearGradient id="linear-gradient" x1="26.3" y1="173.71" x2="68.71" y2="57.21" gradientUnits="userSpaceOnUse"><stop offset="0" stop-color="#430c8c" stop-opacity="0.6"/><stop offset="0.28" stop-color="#430c8c" stop-opacity="0.36"/><stop offset="0.56" stop-color="#430c8c" stop-opacity="0.16"/><stop offset="0.81" stop-color="#430c8c" stop-opacity="0.04"/><stop offset="1" stop-color="#430c8c" stop-opacity="0"/></linearGradient></defs><title>M_1</title><g id="Layer_2" data-name="Layer 2"><g id="Layer_2-2" data-name="Layer 2"><path class="cls-1" d="M0,7V159.94a7,7,0,0,0,7,7H159.92a7,7,0,0,0,5-11.95L12,2.06A7,7,0,0,0,0,7Z"/><path class="cls-1" d="M164.52,2.23c4.5-4.5,12.3-2,12.3,6v154a4.71,4.71,0,0,1-4.71,4.72H7a7,7,0,0,1-4.95-2.05L88.41,78.53Z"/><polygon class="cls-2" points="66.17 56.28 88.41 78.53 2.05 164.89 66.17 56.28"/></g></g></svg>