<svg xmlns="http://www.w3.org/2000/svg" xmlns:xlink="http://www.w3.org/1999/xlink" viewBox="0 0 128.78 166.94"><defs><style>.cls-1{fill:#a263ff;}.cls-2{fill:url(#linear-gradient);}.cls-3{fill:#fff;}.cls-4{fill:#b5ed4a;}</style><linearGradient id="linear-gradient" x1="-2340.48" y1="-2383.75" x2="-2362.53" y2="-2385.68" gradientTransform="matrix(0, -1, -1, 0, -2361.81, -2220.81)" gradientUnits="userSpaceOnUse"><stop offset="0" stop-color="#430c8c" stop-opacity="0.6"/><stop offset="0.1" stop-color="#430c8c" stop-opacity="0.5"/><stop offset="0.33" stop-color="#430c8c" stop-opacity="0.28"/><stop offset="0.57" stop-color="#430c8c" stop-opacity="0.13"/><stop offset="0.79" stop-color="#430c8c" stop-opacity="0.03"/><stop offset="1" stop-color="#430c8c" stop-opacity="0"/></linearGradient></defs><title>P1</title><g id="Layer_2" data-name="Layer 2"><g id="Layer_2-2" data-name="Layer 2"><path class="cls-1" d="M6.8,0h37.4a0,0,0,0,1,0,0V160.14a6.8,6.8,0,0,1-6.8,6.8H6.8a6.8,6.8,0,0,1-6.8-6.8V6.81A6.8,6.8,0,0,1,6.8,0Z"/><polygon class="cls-2" points="0 121.59 44.21 121.58 44.2 139.94 0 121.59"/><path class="cls-3" d="M2.5,119.08V6.81A4.31,4.31,0,0,1,6.8,2.5H64.39c34.13,0,61.89,26.15,61.89,58.29s-27.76,58.29-61.89,58.29Z"/><path class="cls-4" d="M64.39,5c32.75,0,59.39,25,59.39,55.79s-26.64,55.79-59.39,55.79H5V6.81A1.81,1.81,0,0,1,6.8,5H64.39m0-5H6.8A6.81,6.81,0,0,0,0,6.81V121.58H64.39c35.56,0,64.39-27.21,64.39-60.79S100,0,64.39,0Z"/></g></g></svg>