<svg xmlns="http://www.w3.org/2000/svg" xmlns:xlink="http://www.w3.org/1999/xlink" viewBox="0 0 128.78 166.94"><defs><style>.cls-1{fill:#a263ff;}.cls-2{fill:#fff;}.cls-3{fill:#b5ed4a;}.cls-4{fill:url(#linear-gradient);}</style><linearGradient id="linear-gradient" x1="38.93" y1="60.33" x2="71.55" y2="63.18" gradientUnits="userSpaceOnUse"><stop offset="0" stop-color="#430c8c" stop-opacity="0.6"/><stop offset="0.1" stop-color="#430c8c" stop-opacity="0.5"/><stop offset="0.33" stop-color="#430c8c" stop-opacity="0.28"/><stop offset="0.57" stop-color="#430c8c" stop-opacity="0.13"/><stop offset="0.79" stop-color="#430c8c" stop-opacity="0.03"/><stop offset="1" stop-color="#430c8c" stop-opacity="0"/></linearGradient></defs><title>P2</title><g id="Layer_2" data-name="Layer 2"><g id="Layer_2-2" data-name="Layer 2"><path class="cls-1" d="M44.2,0H64.39C100,0,128.78,27.22,128.78,60.79S100,121.58,64.39,121.58H44.2"/><path class="cls-2" d="M6.8,164.44a4.31,4.31,0,0,1-4.3-4.31V6.8A4.31,4.31,0,0,1,6.8,2.5H41.71V160.13a4.31,4.31,0,0,1-4.31,4.31Z"/><path class="cls-3" d="M39.21,5V160.14a1.81,1.81,0,0,1-1.81,1.8H6.8a1.81,1.81,0,0,1-1.8-1.8V6.8A1.81,1.81,0,0,1,6.8,5H39.21m5-5H6.8A6.81,6.81,0,0,0,0,6.8V160.14a6.81,6.81,0,0,0,6.8,6.8H37.4a6.81,6.81,0,0,0,6.81-6.8V0Z"/><polygon class="cls-4" points="44.2 0 66.44 121.58 44.2 121.58 44.2 0"/></g></g></svg>